<svg width="32" height="32" viewBox="0 0 32 32" fill="none" xmlns="http://www.w3.org/2000/svg">
  <g transform="translate(3, 3)">
    <path d="M13 1.5 C9 1.5, 5 4, 5 8 C5 9.5, 6 11, 7 12 C4 13, 1 16, 1 19 C1 22, 4 25, 7 26 C7 27.5, 8 29, 9.5 30 C11 31, 13 31, 14.5 30 C16 31, 18 31, 19.5 30 C21 29, 22 27.5, 22 26 C25 25, 28 22, 28 19 C28 16, 25 13, 22 12 C23 11, 24 9.5, 24 8 C24 4, 20 1.5, 16 1.5 C15 1.5, 14 1.5, 13 1.5 Z" 
          fill="oklch(0.55 0.18 230)" 
          stroke="oklch(0.55 0.18 230)" 
          stroke-width="1.5"/>
    <circle cx="10" cy="10" r="1.2" fill="white"/>
    <circle cx="19" cy="10" r="1.2" fill="white"/>
    <circle cx="14.5" cy="16" r="1.2" fill="white"/>
    <circle cx="10" cy="21" r="1.2" fill="white"/>
    <circle cx="19" cy="21" r="1.2" fill="white"/>
  </g>
</svg>
