<svg width="50" height="50" viewBox="0 0 50 50" fill="none" xmlns="http://www.w3.org/2000/svg">
  <!-- Brain Icon with AI Circuit Pattern -->
  <g transform="translate(5, 5)">
    <!-- Brain Outline -->
    <path d="M20 2 C14 2, 8 6, 8 12 C8 14.5, 9 17, 10.5 18.5 C6 20, 2 24, 2 29 C2 34, 6 38, 10.5 39.5 C10.5 42, 12 44.5, 14.5 46 C17 47.5, 20 47.5, 22.5 46 C25 47.5, 28 47.5, 30.5 46 C33 44.5, 34.5 42, 34.5 39.5 C39 38, 43 34, 43 29 C43 24, 39 20, 34.5 18.5 C36 17, 37 14.5, 37 12 C37 6, 31 2, 25 2 C23.5 2, 21.5 2, 20 2 Z" 
          fill="none" 
          stroke="oklch(0.55 0.18 230)" 
          stroke-width="2.5" 
          stroke-linecap="round" 
          stroke-linejoin="round"/>
    
    <!-- AI Circuit Nodes -->
    <circle cx="15" cy="15" r="2" fill="oklch(0.55 0.18 230)"/>
    <circle cx="30" cy="15" r="2" fill="oklch(0.55 0.18 230)"/>
    <circle cx="22.5" cy="25" r="2" fill="oklch(0.55 0.18 230)"/>
    <circle cx="15" cy="33" r="2" fill="oklch(0.55 0.18 230)"/>
    <circle cx="30" cy="33" r="2" fill="oklch(0.55 0.18 230)"/>
    
    <!-- Connecting Lines (Neural Network) -->
    <line x1="15" y1="15" x2="22.5" y2="25" stroke="oklch(0.55 0.18 230)" stroke-width="1.5" opacity="0.6"/>
    <line x1="30" y1="15" x2="22.5" y2="25" stroke="oklch(0.55 0.18 230)" stroke-width="1.5" opacity="0.6"/>
    <line x1="22.5" y1="25" x2="15" y2="33" stroke="oklch(0.55 0.18 230)" stroke-width="1.5" opacity="0.6"/>
    <line x1="22.5" y1="25" x2="30" y2="33" stroke="oklch(0.55 0.18 230)" stroke-width="1.5" opacity="0.6"/>
    
    <!-- Additional Circuit Details -->
    <circle cx="22.5" cy="10" r="1.2" fill="oklch(0.65 0.15 230)" opacity="0.7"/>
    <circle cx="10" cy="25" r="1.2" fill="oklch(0.65 0.15 230)" opacity="0.7"/>
    <circle cx="35" cy="25" r="1.2" fill="oklch(0.65 0.15 230)" opacity="0.7"/>
  </g>
</svg>
