<svg width="200" height="60" viewBox="0 0 200 60" fill="none" xmlns="http://www.w3.org/2000/svg">
  <!-- Brain Icon with AI Circuit Pattern -->
  <g transform="translate(10, 10)">
    <!-- Brain Outline -->
    <path d="M20 5 C15 5, 10 8, 10 13 C10 15, 11 17, 12 18 C8 19, 5 22, 5 26 C5 30, 8 33, 12 34 C12 36, 13 38, 15 39 C17 40, 19 40, 21 39 C23 40, 25 40, 27 39 C29 38, 30 36, 30 34 C34 33, 37 30, 37 26 C37 22, 34 19, 30 18 C31 17, 32 15, 32 13 C32 8, 27 5, 22 5 C21 5, 20.5 5, 20 5 Z" 
          fill="none" 
          stroke="oklch(0.55 0.18 230)" 
          stroke-width="2" 
          stroke-linecap="round" 
          stroke-linejoin="round"/>
    
    <!-- AI Circuit Nodes -->
    <circle cx="15" cy="15" r="1.5" fill="oklch(0.55 0.18 230)"/>
    <circle cx="27" cy="15" r="1.5" fill="oklch(0.55 0.18 230)"/>
    <circle cx="21" cy="22" r="1.5" fill="oklch(0.55 0.18 230)"/>
    <circle cx="15" cy="28" r="1.5" fill="oklch(0.55 0.18 230)"/>
    <circle cx="27" cy="28" r="1.5" fill="oklch(0.55 0.18 230)"/>
    
    <!-- Connecting Lines (Neural Network) -->
    <line x1="15" y1="15" x2="21" y2="22" stroke="oklch(0.55 0.18 230)" stroke-width="1" opacity="0.6"/>
    <line x1="27" y1="15" x2="21" y2="22" stroke="oklch(0.55 0.18 230)" stroke-width="1" opacity="0.6"/>
    <line x1="21" y1="22" x2="15" y2="28" stroke="oklch(0.55 0.18 230)" stroke-width="1" opacity="0.6"/>
    <line x1="21" y1="22" x2="27" y2="28" stroke="oklch(0.55 0.18 230)" stroke-width="1" opacity="0.6"/>
  </g>
  
  <!-- Text: bilancompetence.ai -->
  <text x="55" y="28" font-family="'Inter', sans-serif" font-size="18" font-weight="700" fill="oklch(0.2 0.02 230)">
    bilancompetence
  </text>
  <text x="55" y="45" font-family="'Inter', sans-serif" font-size="14" font-weight="600" fill="oklch(0.55 0.18 230)">
    .ai
  </text>
  
  <!-- Subtle Accent Line -->
  <rect x="55" y="32" width="130" height="1.5" fill="oklch(0.55 0.18 230)" opacity="0.3" rx="0.75"/>
</svg>
